<mxfile host="app.diagrams.net" agent="Mozilla/5.0 (Windows NT 10.0; Win64; x64) AppleWebKit/537.36 (KHTML, like Gecko) Chrome/133.0.0.0 Safari/537.36 OPR/118.0.0.0 (Edition std-1)" version="27.0.6">
  <diagram name="PÃ¡gina-1" id="DRfpmq5YtLkXoqw87wnF">
    <mxGraphModel grid="1" page="1" gridSize="10" guides="1" tooltips="1" connect="1" arrows="1" fold="1" pageScale="1" pageWidth="827" pageHeight="1169" math="0" shadow="0">
      <root>
        <mxCell id="0" />
        <mxCell id="1" parent="0" />
        <mxCell id="DbydIWM2rCgku7ly2Mz8-1" value="Developer" style="shape=image;verticalLabelPosition=bottom;labelBackgroundColor=default;verticalAlign=top;aspect=fixed;imageAspect=0;image=https://cdn-icons-png.flaticon.com/512/10771/10771017.png;" vertex="1" parent="1">
          <mxGeometry x="-3.5" y="220" width="120" height="120" as="geometry" />
        </mxCell>
        <mxCell id="DbydIWM2rCgku7ly2Mz8-4" value="Github&#xa;" style="shape=image;verticalLabelPosition=top;labelBackgroundColor=default;verticalAlign=bottom;aspect=fixed;imageAspect=0;image=https://images.icon-icons.com/3685/PNG/512/github_logo_icon_229278.png;imageBackground=none;labelPosition=center;align=center;" vertex="1" parent="1">
          <mxGeometry x="20" y="40" width="70" height="70" as="geometry" />
        </mxCell>
        <mxCell id="DbydIWM2rCgku7ly2Mz8-7" value="" style="endArrow=classic;startArrow=classic;html=1;rounded=0;" edge="1" parent="1" source="DbydIWM2rCgku7ly2Mz8-1" target="DbydIWM2rCgku7ly2Mz8-4">
          <mxGeometry width="50" height="50" relative="1" as="geometry">
            <mxPoint x="100" y="190" as="sourcePoint" />
            <mxPoint x="150" y="140" as="targetPoint" />
          </mxGeometry>
        </mxCell>
        <mxCell id="DbydIWM2rCgku7ly2Mz8-8" value="&lt;b&gt;push files and pull files&lt;/b&gt;&lt;div&gt;&lt;br&gt;&lt;/div&gt;" style="edgeLabel;html=1;align=center;verticalAlign=middle;resizable=0;points=[];" connectable="0" vertex="1" parent="DbydIWM2rCgku7ly2Mz8-7">
          <mxGeometry x="0.0727" y="1" relative="1" as="geometry">
            <mxPoint as="offset" />
          </mxGeometry>
        </mxCell>
        <mxCell id="DbydIWM2rCgku7ly2Mz8-16" style="edgeStyle=orthogonalEdgeStyle;rounded=0;orthogonalLoop=1;jettySize=auto;html=1;" edge="1" parent="1" source="DbydIWM2rCgku7ly2Mz8-9" target="DbydIWM2rCgku7ly2Mz8-14">
          <mxGeometry relative="1" as="geometry" />
        </mxCell>
        <mxCell id="DbydIWM2rCgku7ly2Mz8-17" value="Project Content a Dockerfile" style="edgeLabel;html=1;align=center;verticalAlign=middle;resizable=0;points=[];" connectable="0" vertex="1" parent="DbydIWM2rCgku7ly2Mz8-16">
          <mxGeometry relative="1" as="geometry">
            <mxPoint y="15" as="offset" />
          </mxGeometry>
        </mxCell>
        <mxCell id="DbydIWM2rCgku7ly2Mz8-9" value="Project" style="shape=image;verticalLabelPosition=bottom;labelBackgroundColor=default;verticalAlign=top;aspect=fixed;imageAspect=0;image=https://cdn-icons-png.freepik.com/256/5956/5956597.png;" vertex="1" parent="1">
          <mxGeometry x="21.5" y="510" width="70" height="70" as="geometry" />
        </mxCell>
        <mxCell id="DbydIWM2rCgku7ly2Mz8-11" value="" style="endArrow=classic;html=1;rounded=0;entryX=0.5;entryY=0;entryDx=0;entryDy=0;" edge="1" parent="1" source="DbydIWM2rCgku7ly2Mz8-1" target="DbydIWM2rCgku7ly2Mz8-9">
          <mxGeometry width="50" height="50" relative="1" as="geometry">
            <mxPoint x="390" y="520" as="sourcePoint" />
            <mxPoint x="120" y="420" as="targetPoint" />
            <Array as="points" />
          </mxGeometry>
        </mxCell>
        <mxCell id="DbydIWM2rCgku7ly2Mz8-12" value="Create Project" style="edgeLabel;html=1;align=center;verticalAlign=middle;resizable=0;points=[];" connectable="0" vertex="1" parent="DbydIWM2rCgku7ly2Mz8-11">
          <mxGeometry x="0.0667" y="1" relative="1" as="geometry">
            <mxPoint as="offset" />
          </mxGeometry>
        </mxCell>
        <mxCell id="DbydIWM2rCgku7ly2Mz8-14" value="Dockerfile" style="shape=image;verticalLabelPosition=top;labelBackgroundColor=default;verticalAlign=bottom;aspect=fixed;imageAspect=0;image=https://icons.veryicon.com/png/o/file-type/file-type-9/dockerfile.png;labelPosition=center;align=center;" vertex="1" parent="1">
          <mxGeometry x="308.58000000000004" y="500" width="90" height="90" as="geometry" />
        </mxCell>
        <mxCell id="DbydIWM2rCgku7ly2Mz8-21" value="" style="shape=image;verticalLabelPosition=bottom;labelBackgroundColor=default;verticalAlign=top;aspect=fixed;imageAspect=0;image=https://cdn.worldvectorlogo.com/logos/docker.svg;" vertex="1" parent="1">
          <mxGeometry x="313.33" y="680" width="83.34" height="70" as="geometry" />
        </mxCell>
        <mxCell id="DbydIWM2rCgku7ly2Mz8-22" value="" style="endArrow=classic;html=1;rounded=0;" edge="1" parent="1" source="DbydIWM2rCgku7ly2Mz8-14" target="DbydIWM2rCgku7ly2Mz8-21">
          <mxGeometry width="50" height="50" relative="1" as="geometry">
            <mxPoint x="326.67" y="635" as="sourcePoint" />
            <mxPoint x="355" y="650" as="targetPoint" />
          </mxGeometry>
        </mxCell>
        <mxCell id="DbydIWM2rCgku7ly2Mz8-23" value="Build a dockerfile and create a image" style="edgeLabel;html=1;align=center;verticalAlign=middle;resizable=0;points=[];" connectable="0" vertex="1" parent="DbydIWM2rCgku7ly2Mz8-22">
          <mxGeometry x="-0.078" y="-2" relative="1" as="geometry">
            <mxPoint as="offset" />
          </mxGeometry>
        </mxCell>
        <mxCell id="DbydIWM2rCgku7ly2Mz8-24" value="" style="shape=image;verticalLabelPosition=bottom;labelBackgroundColor=default;verticalAlign=top;aspect=fixed;imageAspect=0;image=https://www.unixtutorial.org/images/software/docker-hub.png;" vertex="1" parent="1">
          <mxGeometry x="294" y="870" width="119.16" height="50" as="geometry" />
        </mxCell>
        <mxCell id="DbydIWM2rCgku7ly2Mz8-25" value="" style="endArrow=classic;html=1;rounded=0;" edge="1" parent="1" source="DbydIWM2rCgku7ly2Mz8-21" target="DbydIWM2rCgku7ly2Mz8-24">
          <mxGeometry width="50" height="50" relative="1" as="geometry">
            <mxPoint x="390" y="720" as="sourcePoint" />
            <mxPoint x="440" y="670" as="targetPoint" />
            <Array as="points" />
          </mxGeometry>
        </mxCell>
        <mxCell id="DbydIWM2rCgku7ly2Mz8-26" value="Send image a repository in dockerhub&lt;div&gt;with docker push&lt;/div&gt;" style="edgeLabel;html=1;align=center;verticalAlign=middle;resizable=0;points=[];" connectable="0" vertex="1" parent="DbydIWM2rCgku7ly2Mz8-25">
          <mxGeometry x="-0.1" relative="1" as="geometry">
            <mxPoint as="offset" />
          </mxGeometry>
        </mxCell>
        <mxCell id="DbydIWM2rCgku7ly2Mz8-34" value="" style="shape=image;verticalLabelPosition=bottom;labelBackgroundColor=default;verticalAlign=top;aspect=fixed;imageAspect=0;image=https://miro.medium.com/v2/resize:fit:1022/0*oPOeUSk-IAQbfL--.jpg;" vertex="1" parent="1">
          <mxGeometry x="410" y="20" width="106.27" height="47" as="geometry" />
        </mxCell>
        <mxCell id="DbydIWM2rCgku7ly2Mz8-35" value="" style="rounded=0;whiteSpace=wrap;html=1;labelBackgroundColor=none;fontColor=default;fillColor=none;" vertex="1" parent="1">
          <mxGeometry x="460" y="110" width="1036" height="630" as="geometry" />
        </mxCell>
        <mxCell id="DbydIWM2rCgku7ly2Mz8-36" value="" style="rounded=0;whiteSpace=wrap;html=1;fillColor=none;" vertex="1" parent="1">
          <mxGeometry x="501.39" y="160" width="958.61" height="500" as="geometry" />
        </mxCell>
        <mxCell id="DbydIWM2rCgku7ly2Mz8-37" value="" style="rounded=0;whiteSpace=wrap;html=1;fillColor=none;" vertex="1" parent="1">
          <mxGeometry x="525" y="190" width="885" height="410" as="geometry" />
        </mxCell>
        <mxCell id="DbydIWM2rCgku7ly2Mz8-38" value="" style="rounded=0;whiteSpace=wrap;html=1;fillColor=none;" vertex="1" parent="1">
          <mxGeometry x="557.5" y="240" width="820" height="310" as="geometry" />
        </mxCell>
        <mxCell id="DbydIWM2rCgku7ly2Mz8-27" value="Subscription" style="image;aspect=fixed;html=1;points=[];align=center;fontSize=12;image=img/lib/azure2/general/Subscriptions.svg;" vertex="1" parent="1">
          <mxGeometry x="990" y="80" width="24.79" height="40" as="geometry" />
        </mxCell>
        <mxCell id="DbydIWM2rCgku7ly2Mz8-31" value="Subnet&lt;div&gt;10.0.0.0/24&lt;/div&gt;&lt;div&gt;&lt;br&gt;&lt;/div&gt;" style="image;aspect=fixed;html=1;points=[];align=center;fontSize=12;image=img/lib/azure2/networking/Subnet.svg;" vertex="1" parent="1">
          <mxGeometry x="1290" y="230" width="50.1" height="30" as="geometry" />
        </mxCell>
        <mxCell id="DbydIWM2rCgku7ly2Mz8-30" value="Virtual Netwok&lt;div&gt;10.0.0.0/24&lt;/div&gt;" style="image;aspect=fixed;html=1;points=[];align=center;fontSize=12;image=img/lib/azure2/networking/Virtual_Networks.svg;" vertex="1" parent="1">
          <mxGeometry x="739.27" y="170" width="50.25" height="30" as="geometry" />
        </mxCell>
        <mxCell id="DbydIWM2rCgku7ly2Mz8-28" value="Resource Group&lt;div&gt;&lt;br&gt;&lt;/div&gt;" style="image;aspect=fixed;html=1;points=[];align=center;fontSize=12;image=img/lib/azure2/general/Resource_Groups.svg;" vertex="1" parent="1">
          <mxGeometry x="482.5" y="140" width="42.5" height="40" as="geometry" />
        </mxCell>
        <mxCell id="DbydIWM2rCgku7ly2Mz8-32" value="NSG&lt;div&gt;roles of inboud:&lt;/div&gt;&lt;div&gt;port 80 alow *&lt;/div&gt;&lt;div&gt;port 8080 alow *&lt;/div&gt;" style="image;aspect=fixed;html=1;points=[];align=center;fontSize=12;image=img/lib/azure2/networking/Network_Security_Groups.svg;" vertex="1" parent="1">
          <mxGeometry x="1150" y="340" width="56.00000000000001" height="68" as="geometry" />
        </mxCell>
        <mxCell id="DbydIWM2rCgku7ly2Mz8-29" value="Virtual Machine" style="image;aspect=fixed;html=1;points=[];align=center;fontSize=12;image=img/lib/azure2/compute/Virtual_Machine.svg;" vertex="1" parent="1">
          <mxGeometry x="939.52" y="380" width="69" height="64" as="geometry" />
        </mxCell>
        <mxCell id="DbydIWM2rCgku7ly2Mz8-33" value="" style="shape=image;verticalLabelPosition=bottom;labelBackgroundColor=default;verticalAlign=top;aspect=fixed;imageAspect=0;image=https://cdn.worldvectorlogo.com/logos/docker.svg;" vertex="1" parent="1">
          <mxGeometry x="880" y="240" width="59.52" height="50" as="geometry" />
        </mxCell>
        <mxCell id="DbydIWM2rCgku7ly2Mz8-42" value="Disk" style="image;aspect=fixed;html=1;points=[];align=center;fontSize=12;image=img/lib/azure2/compute/Disks.svg;" vertex="1" parent="1">
          <mxGeometry x="1050" y="280" width="40.72" height="40" as="geometry" />
        </mxCell>
        <mxCell id="DbydIWM2rCgku7ly2Mz8-43" value="" style="endArrow=classic;html=1;rounded=0;" edge="1" parent="1" source="DbydIWM2rCgku7ly2Mz8-29" target="DbydIWM2rCgku7ly2Mz8-42">
          <mxGeometry width="50" height="50" relative="1" as="geometry">
            <mxPoint x="770" y="420" as="sourcePoint" />
            <mxPoint x="820" y="370" as="targetPoint" />
          </mxGeometry>
        </mxCell>
        <mxCell id="DbydIWM2rCgku7ly2Mz8-44" value="" style="endArrow=classic;html=1;rounded=0;" edge="1" parent="1" source="DbydIWM2rCgku7ly2Mz8-42" target="DbydIWM2rCgku7ly2Mz8-32">
          <mxGeometry width="50" height="50" relative="1" as="geometry">
            <mxPoint x="770" y="420" as="sourcePoint" />
            <mxPoint x="820" y="370" as="targetPoint" />
          </mxGeometry>
        </mxCell>
        <mxCell id="DbydIWM2rCgku7ly2Mz8-45" value="" style="endArrow=classic;html=1;rounded=0;" edge="1" parent="1" source="DbydIWM2rCgku7ly2Mz8-29" target="DbydIWM2rCgku7ly2Mz8-33">
          <mxGeometry width="50" height="50" relative="1" as="geometry">
            <mxPoint x="770" y="420" as="sourcePoint" />
            <mxPoint x="820" y="370" as="targetPoint" />
          </mxGeometry>
        </mxCell>
        <mxCell id="DbydIWM2rCgku7ly2Mz8-62" value="Docker in Virtual Machine" style="edgeLabel;html=1;align=center;verticalAlign=middle;resizable=0;points=[];" connectable="0" vertex="1" parent="DbydIWM2rCgku7ly2Mz8-45">
          <mxGeometry x="-0.0727" y="-2" relative="1" as="geometry">
            <mxPoint as="offset" />
          </mxGeometry>
        </mxCell>
        <mxCell id="DbydIWM2rCgku7ly2Mz8-46" value="" style="endArrow=classic;startArrow=classic;html=1;rounded=0;exitX=1;exitY=0.5;exitDx=0;exitDy=0;" edge="1" parent="1" source="DbydIWM2rCgku7ly2Mz8-24" target="DbydIWM2rCgku7ly2Mz8-33">
          <mxGeometry width="50" height="50" relative="1" as="geometry">
            <mxPoint x="770" y="620" as="sourcePoint" />
            <mxPoint x="820" y="570" as="targetPoint" />
          </mxGeometry>
        </mxCell>
        <mxCell id="DbydIWM2rCgku7ly2Mz8-59" value="Docker create container with image from dockehub&amp;nbsp;" style="edgeLabel;html=1;align=center;verticalAlign=middle;resizable=0;points=[];" connectable="0" vertex="1" parent="DbydIWM2rCgku7ly2Mz8-46">
          <mxGeometry x="0.4095" y="1" relative="1" as="geometry">
            <mxPoint as="offset" />
          </mxGeometry>
        </mxCell>
        <mxCell id="DbydIWM2rCgku7ly2Mz8-50" value="Users" style="shape=image;verticalLabelPosition=bottom;labelBackgroundColor=default;verticalAlign=top;aspect=fixed;imageAspect=0;image=https://upload.wikimedia.org/wikipedia/commons/thumb/5/50/User_icon-cp.svg/1656px-User_icon-cp.svg.png;" vertex="1" parent="1">
          <mxGeometry x="1164" y="840.9499999999999" width="76.07" height="94.11" as="geometry" />
        </mxCell>
        <mxCell id="DbydIWM2rCgku7ly2Mz8-51" value="Users Computer" style="image;aspect=fixed;html=1;points=[];align=center;fontSize=12;image=img/lib/azure2/compute/Virtual_Machine.svg;" vertex="1" parent="1">
          <mxGeometry x="943.5" y="856" width="69" height="64" as="geometry" />
        </mxCell>
        <mxCell id="DbydIWM2rCgku7ly2Mz8-53" value="" style="endArrow=classic;startArrow=classic;html=1;rounded=0;" edge="1" parent="1" source="DbydIWM2rCgku7ly2Mz8-51" target="DbydIWM2rCgku7ly2Mz8-50">
          <mxGeometry width="50" height="50" relative="1" as="geometry">
            <mxPoint x="830" y="720" as="sourcePoint" />
            <mxPoint x="880" y="670" as="targetPoint" />
          </mxGeometry>
        </mxCell>
        <mxCell id="DbydIWM2rCgku7ly2Mz8-54" value="" style="endArrow=classic;startArrow=classic;html=1;rounded=0;" edge="1" parent="1" source="DbydIWM2rCgku7ly2Mz8-51" target="DbydIWM2rCgku7ly2Mz8-29">
          <mxGeometry width="50" height="50" relative="1" as="geometry">
            <mxPoint x="830" y="720" as="sourcePoint" />
            <mxPoint x="880" y="670" as="targetPoint" />
          </mxGeometry>
        </mxCell>
        <mxCell id="DbydIWM2rCgku7ly2Mz8-63" value="User Computer connects Swagger via public ip and port 8080" style="edgeLabel;html=1;align=center;verticalAlign=middle;resizable=0;points=[];" connectable="0" vertex="1" parent="DbydIWM2rCgku7ly2Mz8-54">
          <mxGeometry x="0.1496" y="-1" relative="1" as="geometry">
            <mxPoint as="offset" />
          </mxGeometry>
        </mxCell>
        <mxCell id="DbydIWM2rCgku7ly2Mz8-55" value="" style="endArrow=classic;html=1;rounded=0;" edge="1" parent="1" source="DbydIWM2rCgku7ly2Mz8-1" target="DbydIWM2rCgku7ly2Mz8-34">
          <mxGeometry width="50" height="50" relative="1" as="geometry">
            <mxPoint x="580" y="600" as="sourcePoint" />
            <mxPoint x="630" y="550" as="targetPoint" />
          </mxGeometry>
        </mxCell>
        <mxCell id="DbydIWM2rCgku7ly2Mz8-56" value="Dev send command to create infrastructure azure" style="edgeLabel;html=1;align=center;verticalAlign=middle;resizable=0;points=[];" connectable="0" vertex="1" parent="DbydIWM2rCgku7ly2Mz8-55">
          <mxGeometry x="-0.2923" relative="1" as="geometry">
            <mxPoint as="offset" />
          </mxGeometry>
        </mxCell>
        <mxCell id="DbydIWM2rCgku7ly2Mz8-57" value="" style="endArrow=classic;html=1;rounded=0;" edge="1" parent="1" source="DbydIWM2rCgku7ly2Mz8-34" target="DbydIWM2rCgku7ly2Mz8-35">
          <mxGeometry width="50" height="50" relative="1" as="geometry">
            <mxPoint x="420" y="330" as="sourcePoint" />
            <mxPoint x="470" y="280" as="targetPoint" />
          </mxGeometry>
        </mxCell>
        <mxCell id="DbydIWM2rCgku7ly2Mz8-58" value="Azure CLI create infrasreucture" style="edgeLabel;html=1;align=center;verticalAlign=middle;resizable=0;points=[];" connectable="0" vertex="1" parent="DbydIWM2rCgku7ly2Mz8-57">
          <mxGeometry x="-0.0326" y="2" relative="1" as="geometry">
            <mxPoint y="-1" as="offset" />
          </mxGeometry>
        </mxCell>
        <mxCell id="DbydIWM2rCgku7ly2Mz8-60" value="" style="endArrow=classic;html=1;rounded=0;entryX=0.044;entryY=0.588;entryDx=0;entryDy=0;entryPerimeter=0;" edge="1" parent="1" source="DbydIWM2rCgku7ly2Mz8-1" target="DbydIWM2rCgku7ly2Mz8-29">
          <mxGeometry width="50" height="50" relative="1" as="geometry">
            <mxPoint x="680" y="510" as="sourcePoint" />
            <mxPoint x="730" y="460" as="targetPoint" />
          </mxGeometry>
        </mxCell>
        <mxCell id="DbydIWM2rCgku7ly2Mz8-61" value="The developer connects to the virtual machine via SSH and installs Docker." style="edgeLabel;html=1;align=center;verticalAlign=middle;resizable=0;points=[];" connectable="0" vertex="1" parent="DbydIWM2rCgku7ly2Mz8-60">
          <mxGeometry x="0.1988" y="-1" relative="1" as="geometry">
            <mxPoint as="offset" />
          </mxGeometry>
        </mxCell>
        <mxCell id="n1fcPt6fFZVLorNLmAi1-1" value="" style="shape=image;verticalLabelPosition=bottom;labelBackgroundColor=default;verticalAlign=top;aspect=fixed;imageAspect=0;image=https://w7.pngwing.com/pngs/793/832/png-transparent-oracle-cloud-cloud-computing-oracle-corporation-data-center-oracle-database-financial-sector-white-text-logo-thumbnail.png;" vertex="1" parent="1">
          <mxGeometry x="-31.5" y="771" width="173" height="173" as="geometry" />
        </mxCell>
        <mxCell id="n1fcPt6fFZVLorNLmAi1-2" value="" style="endArrow=classic;startArrow=classic;html=1;rounded=0;entryX=0.5;entryY=1;entryDx=0;entryDy=0;" edge="1" parent="1" source="n1fcPt6fFZVLorNLmAi1-1" target="DbydIWM2rCgku7ly2Mz8-9">
          <mxGeometry width="50" height="50" relative="1" as="geometry">
            <mxPoint x="330" y="640" as="sourcePoint" />
            <mxPoint x="380" y="590" as="targetPoint" />
          </mxGeometry>
        </mxCell>
        <mxCell id="n1fcPt6fFZVLorNLmAi1-3" value="The project makes a request to Oracle Cloud, and Oracle Cloud responds to the project." style="edgeLabel;html=1;align=center;verticalAlign=middle;resizable=0;points=[];" connectable="0" vertex="1" parent="n1fcPt6fFZVLorNLmAi1-2">
          <mxGeometry x="0.06" y="-2" relative="1" as="geometry">
            <mxPoint as="offset" />
          </mxGeometry>
        </mxCell>
      </root>
    </mxGraphModel>
  </diagram>
</mxfile>
